<?xml version="1.0" encoding="utf-8"?>
<!-- Generator: Adobe Illustrator 16.0.3, SVG Export Plug-In . SVG Version: 6.00 Build 0)  -->
<!DOCTYPE svg PUBLIC "-//W3C//DTD SVG 1.1 Tiny//EN" "http://www.w3.org/Graphics/SVG/1.1/DTD/svg11-tiny.dtd">
<svg version="1.1" baseProfile="tiny" xmlns="http://www.w3.org/2000/svg" xmlns:xlink="http://www.w3.org/1999/xlink" x="0px"
	 y="0px" width="361.712px" height="259.012px" viewBox="0 0 361.712 259.012" overflow="scroll" xml:space="preserve">
<g id="Layer_1" display="none">
	<g display="inline">
		<path fill="#61B4E1" d="M240.041,145.84c-1.9,0-3.809-0.672-5.336-2.041l-16.807-15.055c-16.748,14.829-41.16,18.913-62.018,9.678
			c-14.166-6.271-25.041-17.684-30.624-32.137c-5.582-14.451-5.202-30.212,1.069-44.378s17.686-25.042,32.137-30.624
			c14.453-5.582,30.213-5.202,44.379,1.07c22.236,9.845,36.061,32.754,34.396,57.006c-0.303,4.406-4.109,7.734-8.529,7.434
			c-4.406-0.303-7.734-4.121-7.434-8.529c1.205-17.561-8.807-34.149-24.912-41.279c-10.258-4.542-21.67-4.818-32.135-0.775
			c-10.466,4.042-18.73,11.917-23.271,22.175c-4.542,10.259-4.816,21.672-0.775,32.137c4.043,10.466,11.918,18.729,22.176,23.271
			c16.945,7.503,37.127,2.872,49.078-11.267c1.395-1.651,3.398-2.667,5.557-2.816c2.156-0.149,4.281,0.58,5.891,2.021l22.498,20.152
			c3.291,2.949,3.57,8.006,0.621,11.297C244.421,144.941,242.236,145.84,240.041,145.84z"/>
		<path d="M179.49,119.147c-4.592,0-9.174-0.96-13.498-2.874c-8.15-3.608-14.408-10.175-17.619-18.49
			c-3.213-8.315-2.994-17.384,0.615-25.535c1.789-4.038,6.514-5.862,10.554-4.076c4.04,1.789,5.865,6.515,4.076,10.555
			c-1.878,4.242-1.992,8.963-0.32,13.291c1.672,4.329,4.929,7.747,9.171,9.625c4.244,1.879,8.963,1.992,13.293,0.32
			c4.328-1.672,7.746-4.93,9.625-9.173c1.879-4.242,1.992-8.963,0.32-13.291s-4.93-7.746-9.172-9.624
			c-3.002-1.33-6.297-1.783-9.523-1.312c-4.369,0.645-8.434-2.387-9.072-6.76c-0.639-4.371,2.387-8.434,6.76-9.072
			c6.221-0.907,12.551-0.039,18.314,2.514c8.148,3.607,14.406,10.174,17.619,18.489c3.211,8.315,2.992,17.383-0.615,25.532
			c-3.609,8.151-10.176,14.409-18.49,17.622C187.623,118.395,183.552,119.147,179.49,119.147z"/>
		<path d="M179.566,167.234c-4.555,0-9.123-0.381-13.664-1.15c-21.455-3.633-40.211-15.402-52.814-33.143
			c-12.602-17.741-17.542-39.325-13.91-60.779c0.738-4.356,4.867-7.284,9.224-6.552c4.356,0.737,7.29,4.867,6.552,9.224
			c-2.918,17.239,1.051,34.585,11.179,48.84c10.128,14.257,25.2,23.716,42.442,26.634c12.191,2.066,24.648,0.658,36.02-4.068
			c4.08-1.697,8.762,0.236,10.459,4.316c1.695,4.08-0.236,8.762-4.316,10.457C200.816,165.139,190.232,167.234,179.566,167.234z"/>
		<path d="M121.53,48.6c-1.722,0-3.455-0.553-4.917-1.693c-3.482-2.719-4.103-7.746-1.385-11.229
			c18.467-23.66,48.301-35.254,77.875-30.245c5.871,0.994,11.621,2.624,17.096,4.843c4.094,1.66,6.068,6.325,4.408,10.42
			c-1.66,4.094-6.328,6.069-10.42,4.408c-4.4-1.784-9.027-3.095-13.754-3.896c-23.763-4.023-47.746,5.294-62.592,24.313
			C126.264,47.543,123.91,48.6,121.53,48.6z"/>
		<path d="M251.949,106.025c-0.443,0-0.893-0.037-1.346-0.113c-4.355-0.737-7.289-4.867-6.551-9.224
			c3.525-20.825-3.283-42.204-18.217-57.189c-3.117-3.129-3.109-8.194,0.02-11.313c3.131-3.117,8.195-3.109,11.314,0.02
			c18.576,18.642,27.047,45.241,22.658,71.155C259.166,103.264,255.781,106.025,251.949,106.025z"/>
	</g>
	<text transform="matrix(1 0 0 1 3.1304 225.6113)" display="inline" font-family="'Aharoni-Bold'" font-size="64">QUESTOPIA</text>
	<text transform="matrix(1 0 0 1 93.085 254.1094)" display="inline" font-family="'Miriam'" font-size="22">FREE YOUR MIND</text>
</g>
<g id="Layer_2">
	<g>
		<path fill="#61B4E1" d="M241.407,145.556c-1.9,0-3.809-0.672-5.336-2.041l-16.807-15.055
			c-16.748,14.828-41.16,18.912-62.018,9.678c-14.166-6.271-25.041-17.684-30.624-32.137c-5.582-14.451-5.202-30.212,1.069-44.378
			s17.686-25.042,32.137-30.624c14.453-5.582,30.213-5.202,44.379,1.07c22.236,9.845,36.061,32.754,34.396,57.006
			c-0.303,4.406-4.109,7.734-8.529,7.434c-4.406-0.303-7.734-4.121-7.434-8.529c1.205-17.561-8.807-34.149-24.912-41.279
			c-10.258-4.542-21.67-4.818-32.135-0.775c-10.466,4.042-18.73,11.917-23.271,22.175c-4.542,10.259-4.816,21.672-0.775,32.137
			c4.043,10.466,11.918,18.729,22.176,23.271c16.945,7.503,37.127,2.872,49.078-11.267c1.395-1.651,3.398-2.667,5.557-2.816
			c2.156-0.149,4.281,0.58,5.891,2.021l22.498,20.151c3.291,2.949,3.57,8.006,0.621,11.297
			C245.788,144.657,243.602,145.556,241.407,145.556z"/>
		<path fill="#FFFFFF" d="M180.856,118.863c-4.592,0-9.174-0.96-13.498-2.874c-8.15-3.608-14.408-10.175-17.619-18.49
			c-3.213-8.315-2.994-17.384,0.615-25.535c1.789-4.038,6.514-5.862,10.554-4.076c4.04,1.789,5.865,6.515,4.076,10.555
			c-1.878,4.242-1.992,8.963-0.32,13.291c1.672,4.329,4.929,7.747,9.171,9.625c4.244,1.879,8.963,1.992,13.293,0.32
			c4.328-1.672,7.746-4.93,9.625-9.173c1.879-4.242,1.992-8.963,0.32-13.291s-4.93-7.746-9.172-9.624
			c-3.002-1.33-6.297-1.783-9.523-1.312c-4.369,0.645-8.434-2.387-9.072-6.76c-0.639-4.371,2.387-8.434,6.76-9.072
			c6.221-0.907,12.551-0.039,18.314,2.514c8.148,3.607,14.406,10.174,17.619,18.489c3.211,8.315,2.992,17.383-0.615,25.532
			c-3.609,8.151-10.176,14.409-18.49,17.622C188.989,118.111,184.918,118.863,180.856,118.863z"/>
		<path fill="#FFFFFF" d="M180.932,166.95c-4.555,0-9.123-0.381-13.664-1.15c-21.455-3.633-40.211-15.402-52.814-33.143
			c-12.602-17.74-17.542-39.324-13.91-60.778c0.738-4.356,4.867-7.284,9.224-6.552c4.356,0.737,7.29,4.867,6.552,9.224
			c-2.918,17.239,1.051,34.585,11.179,48.84c10.128,14.257,25.2,23.716,42.442,26.634c12.191,2.066,24.648,0.658,36.02-4.068
			c4.08-1.697,8.762,0.236,10.459,4.316c1.695,4.08-0.236,8.762-4.316,10.457C202.182,164.854,191.598,166.95,180.932,166.95z"/>
		<path fill="#FFFFFF" d="M122.896,48.316c-1.722,0-3.455-0.553-4.917-1.693c-3.482-2.719-4.103-7.746-1.385-11.229
			c18.467-23.66,48.301-35.254,77.875-30.245c5.871,0.994,11.621,2.624,17.096,4.843c4.094,1.66,6.068,6.325,4.408,10.42
			c-1.66,4.094-6.328,6.069-10.42,4.408c-4.4-1.784-9.027-3.095-13.754-3.896c-23.763-4.023-47.746,5.294-62.592,24.313
			C127.63,47.26,125.276,48.316,122.896,48.316z"/>
		<path fill="#FFFFFF" d="M253.315,105.741c-0.443,0-0.893-0.037-1.346-0.113c-4.355-0.737-7.289-4.867-6.551-9.224
			c3.525-20.825-3.283-42.204-18.217-57.189c-3.117-3.129-3.109-8.194,0.02-11.313c3.131-3.117,8.195-3.109,11.314,0.02
			c18.576,18.642,27.047,45.241,22.658,71.155C260.532,102.98,257.147,105.741,253.315,105.741z"/>
	</g>
	<text transform="matrix(1 0 0 1 4.4966 225.3276)" fill="#FFFFFF" font-family="'Aharoni-Bold'" font-size="64">QUESTOPIA</text>
	<text transform="matrix(1 0 0 1 94.4512 253.8262)" fill="#FFFFFF" font-family="'Miriam'" font-size="22">FREE YOUR MIND</text>
</g>
</svg>
